<mxfile host="app.diagrams.net" modified="2024-05-25T03:27:02.879Z" agent="Mozilla/5.0 (Macintosh; Intel Mac OS X 10_15_7) AppleWebKit/605.1.15 (KHTML, like Gecko) Version/16.5.1 Safari/605.1.15" version="24.4.8" etag="Q1AKFVS_a0z6Tp7WIZn2" type="github">
  <diagram name="PÃ¡gina-1" id="GJRbSnIKtaYiDTH2I936">
    <mxGraphModel>
      <root>
        <mxCell id="0" />
        <mxCell id="1" parent="0" />
      </root>
    </mxGraphModel>
  </diagram>
</mxfile>
